<svg width="385" height="160" viewBox="0 0 385 160" fill="none" xmlns="http://www.w3.org/2000/svg">
<rect width="384.66" height="160" fill="url(#paint0_linear_1040_11491)"/>
<path d="M16.858 141V132.06H20.2C20.808 132.06 21.3455 132.169 21.8125 132.388C22.2795 132.608 22.6455 132.928 22.9105 133.349C23.1755 133.77 23.308 134.282 23.308 134.886C23.308 135.478 23.174 135.984 22.906 136.404C22.638 136.824 22.271 137.145 21.805 137.367C21.339 137.589 20.804 137.7 20.2 137.7H18.493V141H16.858ZM18.493 136.26H20.221C20.515 136.26 20.77 136.202 20.986 136.087C21.202 135.972 21.3705 135.811 21.4915 135.605C21.6125 135.398 21.673 135.157 21.673 134.883C21.673 134.603 21.6125 134.36 21.4915 134.154C21.3705 133.948 21.202 133.787 20.986 133.672C20.77 133.557 20.515 133.5 20.221 133.5H18.493V136.26ZM25.834 141V132.06H29.167C29.775 132.06 30.3125 132.169 30.7795 132.388C31.2465 132.608 31.6125 132.928 31.8775 133.349C32.1425 133.77 32.275 134.282 32.275 134.886C32.275 135.5 32.1285 136.024 31.8355 136.456C31.5425 136.89 31.148 137.21 30.652 137.418L32.704 141H30.856L28.654 137.076L29.716 137.7H27.469V141H25.834ZM27.469 136.26H29.188C29.482 136.26 29.737 136.202 29.953 136.087C30.169 135.972 30.3375 135.811 30.4585 135.605C30.5795 135.398 30.64 135.157 30.64 134.883C30.64 134.603 30.5795 134.36 30.4585 134.154C30.3375 133.948 30.169 133.787 29.953 133.672C29.737 133.557 29.482 133.5 29.188 133.5H27.469V136.26ZM34.966 141V132.06H40.915V133.5H36.601V135.798H40.675V137.238H36.601V139.56H40.915V141H34.966ZM43.306 141V132.06H44.866L48.217 136.608H47.47L50.746 132.06H52.306V141H50.671V133.923L51.307 134.079L47.902 138.6H47.71L44.398 134.079L44.941 133.923V141H43.306ZM55.222 141V132.06H56.857V141H55.222ZM63.22 141.144C62.534 141.144 61.924 141 61.39 140.712C60.856 140.424 60.4375 140.029 60.1345 139.527C59.8315 139.025 59.68 138.454 59.68 137.814V132.06H61.315V137.724C61.315 138.096 61.397 138.429 61.561 138.723C61.725 139.017 61.9505 139.247 62.2375 139.411C62.5245 139.576 62.852 139.659 63.22 139.659C63.594 139.659 63.923 139.576 64.207 139.411C64.491 139.247 64.715 139.017 64.879 138.723C65.043 138.429 65.125 138.096 65.125 137.724V132.06H66.76V137.814C66.76 138.454 66.6085 139.025 66.3055 139.527C66.0025 140.029 65.5845 140.424 65.0515 140.712C64.5185 141 63.908 141.144 63.22 141.144ZM69.586 141V132.06H71.146L74.497 136.608H73.75L77.026 132.06H78.586V141H76.951V133.923L77.587 134.079L74.182 138.6H73.99L70.678 134.079L71.221 133.923V141H69.586ZM84.112 141L87.196 132.06H89.308L92.392 141H90.619L89.977 139.086H86.521L85.876 141H84.112ZM86.986 137.646H89.506L88.027 133.194H88.477L86.986 137.646ZM97.654 141.144C97.092 141.144 96.5685 141.041 96.0835 140.833C95.5985 140.627 95.1825 140.337 94.8355 139.964C94.4885 139.59 94.232 139.157 94.066 138.663L95.425 138.069C95.645 138.587 95.9585 138.991 96.3655 139.28C96.7725 139.569 97.232 139.713 97.744 139.713C98.032 139.713 98.2815 139.668 98.4925 139.576C98.7035 139.486 98.868 139.36 98.986 139.199C99.104 139.038 99.163 138.848 99.163 138.63C99.163 138.364 99.085 138.146 98.929 137.975C98.773 137.804 98.537 137.669 98.221 137.571L96.505 137.019C95.813 136.799 95.2895 136.474 94.9345 136.046C94.5795 135.616 94.402 135.108 94.402 134.52C94.402 134.006 94.5285 133.553 94.7815 133.163C95.0345 132.771 95.387 132.466 95.839 132.246C96.291 132.026 96.809 131.916 97.393 131.916C97.929 131.916 98.4215 132.009 98.8705 132.197C99.3195 132.383 99.7055 132.643 100.028 132.975C100.351 133.307 100.592 133.699 100.75 134.151L99.406 134.748C99.232 134.304 98.9685 133.96 98.6155 133.715C98.2625 133.469 97.856 133.347 97.396 133.347C97.124 133.347 96.8835 133.392 96.6745 133.482C96.4655 133.572 96.304 133.701 96.19 133.867C96.076 134.035 96.019 134.228 96.019 134.448C96.019 134.696 96.099 134.915 96.259 135.105C96.419 135.295 96.661 135.441 96.985 135.543L98.626 136.062C99.342 136.288 99.8785 136.606 100.235 137.016C100.592 137.426 100.771 137.93 100.771 138.528C100.771 139.038 100.638 139.49 100.373 139.884C100.108 140.278 99.743 140.587 99.277 140.809C98.811 141.032 98.27 141.144 97.654 141.144ZM106.618 141.144C106.056 141.144 105.533 141.041 105.048 140.833C104.563 140.627 104.147 140.337 103.8 139.964C103.453 139.59 103.196 139.157 103.03 138.663L104.389 138.069C104.609 138.587 104.923 138.991 105.33 139.28C105.737 139.569 106.196 139.713 106.708 139.713C106.996 139.713 107.246 139.668 107.457 139.576C107.668 139.486 107.832 139.36 107.95 139.199C108.068 139.038 108.127 138.848 108.127 138.63C108.127 138.364 108.049 138.146 107.893 137.975C107.737 137.804 107.501 137.669 107.185 137.571L105.469 137.019C104.777 136.799 104.254 136.474 103.899 136.046C103.544 135.616 103.366 135.108 103.366 134.52C103.366 134.006 103.493 133.553 103.746 133.163C103.999 132.771 104.351 132.466 104.803 132.246C105.255 132.026 105.773 131.916 106.357 131.916C106.893 131.916 107.386 132.009 107.835 132.197C108.284 132.383 108.67 132.643 108.993 132.975C109.316 133.307 109.556 133.699 109.714 134.151L108.37 134.748C108.196 134.304 107.933 133.96 107.58 133.715C107.227 133.469 106.82 133.347 106.36 133.347C106.088 133.347 105.848 133.392 105.639 133.482C105.43 133.572 105.268 133.701 105.154 133.867C105.04 134.035 104.983 134.228 104.983 134.448C104.983 134.696 105.063 134.915 105.223 135.105C105.383 135.295 105.625 135.441 105.949 135.543L107.59 136.062C108.306 136.288 108.843 136.606 109.2 137.016C109.557 137.426 109.735 137.93 109.735 138.528C109.735 139.038 109.603 139.49 109.338 139.884C109.073 140.278 108.707 140.587 108.241 140.809C107.775 141.032 107.234 141.144 106.618 141.144ZM112.39 141V132.06H118.339V133.5H114.025V135.798H118.099V137.238H114.025V139.56H118.339V141H112.39ZM122.323 141V133.5H120.004V132.06H126.244V133.5H123.958V141H122.323ZM131.626 141.144C131.064 141.144 130.54 141.041 130.055 140.833C129.57 140.627 129.154 140.337 128.807 139.964C128.46 139.59 128.204 139.157 128.038 138.663L129.397 138.069C129.617 138.587 129.93 138.991 130.337 139.28C130.744 139.569 131.204 139.713 131.716 139.713C132.004 139.713 132.253 139.668 132.464 139.576C132.675 139.486 132.84 139.36 132.958 139.199C133.076 139.038 133.135 138.848 133.135 138.63C133.135 138.364 133.057 138.146 132.901 137.975C132.745 137.804 132.509 137.669 132.193 137.571L130.477 137.019C129.785 136.799 129.261 136.474 128.906 136.046C128.551 135.616 128.374 135.108 128.374 134.52C128.374 134.006 128.5 133.553 128.753 133.163C129.006 132.771 129.359 132.466 129.811 132.246C130.263 132.026 130.781 131.916 131.365 131.916C131.901 131.916 132.393 132.009 132.842 132.197C133.291 132.383 133.677 132.643 134 132.975C134.323 133.307 134.564 133.699 134.722 134.151L133.378 134.748C133.204 134.304 132.94 133.96 132.587 133.715C132.234 133.469 131.828 133.347 131.368 133.347C131.096 133.347 130.855 133.392 130.646 133.482C130.437 133.572 130.276 133.701 130.162 133.867C130.048 134.035 129.991 134.228 129.991 134.448C129.991 134.696 130.071 134.915 130.231 135.105C130.391 135.295 130.633 135.441 130.957 135.543L132.598 136.062C133.314 136.288 133.85 136.606 134.207 137.016C134.564 137.426 134.743 137.93 134.743 138.528C134.743 139.038 134.61 139.49 134.345 139.884C134.08 140.278 133.715 140.587 133.249 140.809C132.783 141.032 132.242 141.144 131.626 141.144Z" fill="white"/>
<defs>
<linearGradient id="paint0_linear_1040_11491" x1="192.33" y1="160" x2="192.33" y2="0" gradientUnits="userSpaceOnUse">
<stop stop-color="#091426" stop-opacity="0.6"/>
<stop offset="1" stop-color="#091426" stop-opacity="0"/>
</linearGradient>
</defs>
</svg>
