<svg width="45" height="47" viewBox="0 0 45 47" fill="none" xmlns="http://www.w3.org/2000/svg">
<path d="M6.47637 27.7058C6.94398 26.3415 8.22683 25.425 9.66905 25.425H35.0067C36.4301 25.425 37.7004 26.318 38.1823 27.6572L43.3741 42.0837C44.1656 44.283 42.5359 46.6015 40.1985 46.6015H4.7245C2.40886 46.6015 0.781024 44.3228 1.53181 42.1323L6.47637 27.7058Z" fill="url(#paint0_linear_994_6339)"/>
<foreignObject x="-7.91492" y="-20.5149" width="68.5059" height="81.5708"><div xmlns="http://www.w3.org/1999/xhtml" style="backdrop-filter:blur(10.26px);clip-path:url(#bgblur_0_994_6339_clip_path);height:100%;width:100%"></div></foreignObject><path data-figma-bg-blur-radius="20.5149" fill-rule="evenodd" clip-rule="evenodd" d="M14.4448 20.6191L24.3491 39.3431C25.194 40.9404 27.482 40.9403 28.3269 39.343L38.2223 20.6345C39.401 18.6076 40.0761 16.2517 40.0761 13.7381C40.0761 6.15078 33.9253 4.90534e-05 26.338 4.839e-05C18.7507 4.77267e-05 12.5999 6.15078 12.5999 13.7381C12.5999 15.8595 13.0808 17.8686 13.9394 19.6623C13.9395 19.6625 13.9394 19.6626 13.9392 19.6626C13.939 19.6626 13.9389 19.6628 13.939 19.6629L13.9463 19.6767C14.1005 19.9979 14.2669 20.3123 14.4448 20.6191Z" fill="url(#paint1_linear_994_6339)" fill-opacity="0.3"/>
<foreignObject x="-7.91492" y="-20.5149" width="68.5059" height="81.5708"><div xmlns="http://www.w3.org/1999/xhtml" style="backdrop-filter:blur(10.26px);clip-path:url(#bgblur_1_994_6339_clip_path);height:100%;width:100%"></div></foreignObject><g data-figma-bg-blur-radius="20.5149">
<path fill-rule="evenodd" clip-rule="evenodd" d="M14.5432 20.5645L24.4485 39.2905C25.2512 40.8079 27.4248 40.8079 28.2274 39.2904L38.1239 20.5799L38.125 20.5779C39.294 18.5678 39.9636 16.2313 39.9636 13.7381C39.9636 6.21291 33.8632 0.112548 26.338 0.112548C18.8128 0.112547 12.7124 6.21291 12.7124 13.7381C12.7124 15.8423 13.1894 17.8348 14.0409 19.6138C14.042 19.616 14.043 19.6183 14.0439 19.6206L14.0468 19.626L14.0477 19.628C14.2007 19.9466 14.3657 20.2584 14.5421 20.5626L14.5432 20.5645ZM13.9885 19.7639C13.9885 19.7639 13.9885 19.7639 13.9885 19.7639C13.9744 19.7349 13.9603 19.7058 13.9463 19.6767L13.939 19.6629C13.9389 19.6628 13.939 19.6626 13.9392 19.6626C13.9394 19.6626 13.9395 19.6625 13.9394 19.6623C13.9393 19.6622 13.9393 19.6621 13.9392 19.6619C13.9231 19.6283 13.9071 19.5945 13.8913 19.5607C13.8913 19.5608 13.8913 19.5607 13.8913 19.5607C13.0629 17.7929 12.5999 15.8195 12.5999 13.7381C12.5999 6.15078 18.7507 4.77267e-05 26.338 4.839e-05C33.9253 4.90534e-05 40.0761 6.15078 40.0761 13.7381C40.0761 16.2517 39.401 18.6076 38.2223 20.6345L28.3269 39.343C27.482 40.9403 25.194 40.9404 24.3491 39.3431L14.4448 20.6191C14.283 20.3401 14.1308 20.0549 13.9885 19.7639Z" fill="url(#paint2_linear_994_6339)"/>
<path fill-rule="evenodd" clip-rule="evenodd" d="M14.5432 20.5645L24.4485 39.2905C25.2512 40.8079 27.4248 40.8079 28.2274 39.2904L38.1239 20.5799L38.125 20.5779C39.294 18.5678 39.9636 16.2313 39.9636 13.7381C39.9636 6.21291 33.8632 0.112548 26.338 0.112548C18.8128 0.112547 12.7124 6.21291 12.7124 13.7381C12.7124 15.8423 13.1894 17.8348 14.0409 19.6138C14.042 19.616 14.043 19.6183 14.0439 19.6206L14.0468 19.626L14.0477 19.628C14.2007 19.9466 14.3657 20.2584 14.5421 20.5626L14.5432 20.5645ZM13.9885 19.7639C13.9885 19.7639 13.9885 19.7639 13.9885 19.7639C13.9744 19.7349 13.9603 19.7058 13.9463 19.6767L13.939 19.6629C13.9389 19.6628 13.939 19.6626 13.9392 19.6626C13.9394 19.6626 13.9395 19.6625 13.9394 19.6623C13.9393 19.6622 13.9393 19.6621 13.9392 19.6619C13.9231 19.6283 13.9071 19.5945 13.8913 19.5607C13.8913 19.5608 13.8913 19.5607 13.8913 19.5607C13.0629 17.7929 12.5999 15.8195 12.5999 13.7381C12.5999 6.15078 18.7507 4.77267e-05 26.338 4.839e-05C33.9253 4.90534e-05 40.0761 6.15078 40.0761 13.7381C40.0761 16.2517 39.401 18.6076 38.2223 20.6345L28.3269 39.343C27.482 40.9403 25.194 40.9404 24.3491 39.3431L14.4448 20.6191C14.283 20.3401 14.1308 20.0549 13.9885 19.7639Z" fill="url(#paint3_radial_994_6339)"/>
</g>
<circle cx="26.338" cy="13.7907" r="5.15177" fill="white"/>
<defs>
<clipPath id="bgblur_0_994_6339_clip_path" transform="translate(7.91492 20.5149)"><path fill-rule="evenodd" clip-rule="evenodd" d="M14.4448 20.6191L24.3491 39.3431C25.194 40.9404 27.482 40.9403 28.3269 39.343L38.2223 20.6345C39.401 18.6076 40.0761 16.2517 40.0761 13.7381C40.0761 6.15078 33.9253 4.90534e-05 26.338 4.839e-05C18.7507 4.77267e-05 12.5999 6.15078 12.5999 13.7381C12.5999 15.8595 13.0808 17.8686 13.9394 19.6623C13.9395 19.6625 13.9394 19.6626 13.9392 19.6626C13.939 19.6626 13.9389 19.6628 13.939 19.6629L13.9463 19.6767C14.1005 19.9979 14.2669 20.3123 14.4448 20.6191Z"/>
</clipPath><clipPath id="bgblur_1_994_6339_clip_path" transform="translate(7.91492 20.5149)"><path fill-rule="evenodd" clip-rule="evenodd" d="M14.5432 20.5645L24.4485 39.2905C25.2512 40.8079 27.4248 40.8079 28.2274 39.2904L38.1239 20.5799L38.125 20.5779C39.294 18.5678 39.9636 16.2313 39.9636 13.7381C39.9636 6.21291 33.8632 0.112548 26.338 0.112548C18.8128 0.112547 12.7124 6.21291 12.7124 13.7381C12.7124 15.8423 13.1894 17.8348 14.0409 19.6138C14.042 19.616 14.043 19.6183 14.0439 19.6206L14.0468 19.626L14.0477 19.628C14.2007 19.9466 14.3657 20.2584 14.5421 20.5626L14.5432 20.5645ZM13.9885 19.7639C13.9885 19.7639 13.9885 19.7639 13.9885 19.7639C13.9744 19.7349 13.9603 19.7058 13.9463 19.6767L13.939 19.6629C13.9389 19.6628 13.939 19.6626 13.9392 19.6626C13.9394 19.6626 13.9395 19.6625 13.9394 19.6623C13.9393 19.6622 13.9393 19.6621 13.9392 19.6619C13.9231 19.6283 13.9071 19.5945 13.8913 19.5607C13.8913 19.5608 13.8913 19.5607 13.8913 19.5607C13.0629 17.7929 12.5999 15.8195 12.5999 13.7381C12.5999 6.15078 18.7507 4.77267e-05 26.338 4.839e-05C33.9253 4.90534e-05 40.0761 6.15078 40.0761 13.7381C40.0761 16.2517 39.401 18.6076 38.2223 20.6345L28.3269 39.343C27.482 40.9403 25.194 40.9404 24.3491 39.3431L14.4448 20.6191C14.283 20.3401 14.1308 20.0549 13.9885 19.7639Z"/>
</clipPath><linearGradient id="paint0_linear_994_6339" x1="22.4616" y1="25.425" x2="22.4616" y2="46.6015" gradientUnits="userSpaceOnUse">
<stop stop-color="#BDD327"/>
<stop offset="1" stop-color="#2780C4"/>
</linearGradient>
<linearGradient id="paint1_linear_994_6339" x1="37.1358" y1="36.8006" x2="3.65139" y2="25.0502" gradientUnits="userSpaceOnUse">
<stop stop-color="#5A81FF" stop-opacity="0.9"/>
<stop offset="0.447036" stop-color="#567DFF" stop-opacity="0.955296"/>
<stop offset="1" stop-color="#4E78FF" stop-opacity="0.9"/>
</linearGradient>
<linearGradient id="paint2_linear_994_6339" x1="36.1219" y1="41.9889" x2="6.26347" y2="30.1737" gradientUnits="userSpaceOnUse">
<stop offset="0.188941" stop-color="#E7F0FF" stop-opacity="0.523483"/>
<stop offset="0.526042" stop-color="#88A4FF"/>
<stop offset="1" stop-color="#B4D2FF" stop-opacity="0.1"/>
</linearGradient>
<radialGradient id="paint3_radial_994_6339" cx="0" cy="0" r="1" gradientTransform="matrix(-13.586 24.7348 -16.7637 -52.1614 35.9698 1.32728)" gradientUnits="userSpaceOnUse">
<stop stop-color="white"/>
<stop offset="1" stop-color="white" stop-opacity="0"/>
</radialGradient>
</defs>
</svg>
