<svg width="26" height="26" viewBox="0 0 26 26" fill="none" xmlns="http://www.w3.org/2000/svg">
<path d="M10.79 9.85333L11.7498 6.49608C12.1095 5.23941 13.8905 5.23941 14.2501 6.49608L15.2089 9.85333C15.2696 10.0657 15.3834 10.2591 15.5396 10.4153C15.6958 10.5715 15.8892 10.6853 16.1016 10.746L19.4588 11.7047C20.7155 12.0644 20.7155 13.8454 19.4588 14.2051L16.1016 15.1638C15.8892 15.2245 15.6958 15.3383 15.5396 15.4945C15.3834 15.6507 15.2696 15.8441 15.2089 16.0565L14.2501 19.4137C13.8905 20.6704 12.1095 20.6704 11.7498 19.4137L10.7911 16.0565C10.7304 15.8441 10.6165 15.6507 10.4604 15.4945C10.3042 15.3383 10.1108 15.2245 9.8984 15.1638L6.54115 14.2051C5.28448 13.8454 5.28448 12.0644 6.54115 11.7047L9.8984 10.746C10.1108 10.6853 10.3042 10.5715 10.4604 10.4153C10.6165 10.2591 10.7304 10.0657 10.7911 9.85333M19.6126 17.8375C19.9257 16.9242 21.242 16.9232 21.554 17.8375L21.5821 17.9317L21.9028 19.2187L23.1898 19.5405C24.2298 19.8005 24.2298 21.276 23.1898 21.536L21.9028 21.8577L21.5821 23.1447C21.3222 24.1837 19.8456 24.1837 19.5856 23.1447L19.2638 21.8577L17.9768 21.536C16.9368 21.276 16.9368 19.7994 17.9768 19.5405L19.2638 19.2187L19.5856 17.9317L19.6126 17.8375ZM20.5833 20.3183C20.521 20.4018 20.4469 20.4759 20.3634 20.5382C20.4469 20.6006 20.521 20.6747 20.5833 20.7582C20.6457 20.6747 20.7197 20.6006 20.8032 20.5382C20.7197 20.4756 20.6456 20.4011 20.5833 20.3172M4.44598 2.66975C4.76882 1.72616 6.16307 1.75758 6.41548 2.764L6.73615 4.051L8.02315 4.37275C9.06315 4.63275 9.06315 6.10825 8.02315 6.36825L6.73615 6.69L6.41548 7.977C6.15548 9.01591 4.6789 9.01591 4.4189 7.977L4.09715 6.69L2.81015 6.36825C1.77015 6.10825 1.77015 4.63166 2.81015 4.37275L4.09715 4.051L4.4189 2.764L4.44598 2.66975ZM5.41665 5.15166C5.35422 5.23478 5.28016 5.30848 5.19673 5.3705C5.28031 5.43318 5.35438 5.50761 5.41665 5.5915C5.47892 5.50761 5.55299 5.43318 5.63657 5.3705C5.55307 5.30815 5.479 5.23517 5.41665 5.15166Z" fill="white"/>
</svg>
