<svg width="27" height="27" viewBox="0 0 27 27" fill="none" xmlns="http://www.w3.org/2000/svg">
<path d="M19.0409 9.05622H9.28604V6.98352C9.28604 4.82857 11.038 3.07664 13.1929 3.07664C14.7721 3.07664 16.1786 4.01429 16.7955 5.46189C16.9764 5.88137 17.4535 6.07876 17.8729 5.89782C18.2924 5.72509 18.4898 5.23982 18.3089 4.82034C17.437 2.76409 15.4301 1.43164 13.1929 1.43164C10.1332 1.43164 7.64104 3.92382 7.64104 6.98352V9.05622H7.27914C5.46141 9.05622 3.98914 10.5285 3.98914 12.3462V21.1716C3.98914 22.9894 5.46141 24.4616 7.27914 24.4616H19.0409C20.8586 24.4616 22.3309 22.9894 22.3309 21.1716V12.3462C22.3309 10.5367 20.8586 9.05622 19.0409 9.05622ZM20.6859 21.1716C20.6859 22.0764 19.9456 22.8166 19.0409 22.8166H7.27914C6.37439 22.8166 5.63414 22.0764 5.63414 21.1716V12.3462C5.63414 11.4415 6.37439 10.7012 7.27914 10.7012H19.0409C19.9456 10.7012 20.6859 11.4415 20.6859 12.3462V21.1716ZM14.6405 16.5245C14.6405 17.0345 14.3773 17.4951 13.9825 17.7583V19.7734C13.9825 20.2258 13.6124 20.5959 13.16 20.5959C12.7076 20.5959 12.3375 20.2258 12.3375 19.7734V17.7583C11.9427 17.4951 11.6795 17.0345 11.6795 16.5245C11.6795 15.7102 12.3457 15.044 13.16 15.044C13.9743 15.044 14.6405 15.702 14.6405 16.5245Z" fill="white"/>
</svg>
