<svg width="24" height="22" viewBox="0 0 24 22" fill="none" xmlns="http://www.w3.org/2000/svg">
<path d="M4.24729 20.4922H19.414M11.3561 1.28041C11.4029 1.19549 11.4716 1.12467 11.555 1.07534C11.6385 1.02602 11.7337 1 11.8306 1C11.9276 1 12.0227 1.02602 12.1062 1.07534C12.1897 1.12467 12.2584 1.19549 12.3051 1.28041L15.5031 7.35141C15.5794 7.49199 15.6858 7.61394 15.8148 7.7085C15.9438 7.80306 16.0921 7.8679 16.2491 7.89834C16.4061 7.92879 16.5679 7.9241 16.7229 7.88461C16.8779 7.84511 17.0222 7.77179 17.1455 7.66991L21.7789 3.70058C21.8678 3.62824 21.9774 3.58598 22.0919 3.5799C22.2064 3.57381 22.3199 3.60421 22.416 3.66672C22.5121 3.72923 22.5859 3.82062 22.6267 3.92775C22.6676 4.03487 22.6734 4.15219 22.6434 4.26283L19.5732 15.3627C19.5105 15.5898 19.3755 15.7903 19.1886 15.9338C19.0017 16.0773 18.7732 16.156 18.5375 16.1578H5.12479C4.88898 16.1562 4.66015 16.0776 4.47304 15.9341C4.28593 15.7906 4.15076 15.59 4.08804 15.3627L1.01895 4.26391C0.98889 4.15328 0.994709 4.03595 1.03557 3.92883C1.07643 3.82171 1.15023 3.73031 1.24634 3.66781C1.34246 3.6053 1.45592 3.5749 1.57041 3.58098C1.6849 3.58707 1.79451 3.62932 1.88345 3.70166L6.51579 7.671C6.63907 7.77288 6.78338 7.84619 6.93835 7.88569C7.09333 7.92518 7.25513 7.92988 7.41214 7.89943C7.56914 7.86898 7.71746 7.80415 7.84644 7.70958C7.97541 7.61502 8.08186 7.49307 8.15812 7.3525L11.3561 1.28041Z" stroke="white" stroke-width="2" stroke-linecap="round" stroke-linejoin="round"/>
</svg>
