<svg width="27" height="27" viewBox="0 0 27 27" fill="none" xmlns="http://www.w3.org/2000/svg">
<g clip-path="url(#clip0_994_6301)">
<path d="M11.5027 21.5798C11.6709 21.8712 11.9129 22.1131 12.2042 22.2813C12.4956 22.4495 12.8261 22.5381 13.1625 22.5381C13.4989 22.5381 13.8295 22.4495 14.1208 22.2813C14.4122 22.1131 14.6541 21.8712 14.8224 21.5798" stroke="white" stroke-width="2" stroke-linecap="round" stroke-linejoin="round"/>
<path d="M4.78505 16.1423C4.65986 16.2795 4.57724 16.4502 4.54725 16.6335C4.51725 16.8168 4.54117 17.0049 4.6161 17.1748C4.69103 17.3448 4.81374 17.4893 4.9693 17.5908C5.12485 17.6923 5.30656 17.7464 5.4923 17.7466H20.8256C21.0114 17.7466 21.1931 17.6927 21.3488 17.5914C21.5044 17.4901 21.6273 17.3458 21.7024 17.1759C21.7775 17.0061 21.8017 16.818 21.7719 16.6347C21.7422 16.4514 21.6598 16.2807 21.5348 16.1433C20.2602 14.8294 18.909 13.4331 18.909 9.12158C18.909 7.59659 18.3032 6.13405 17.2248 5.05572C16.1465 3.97738 14.684 3.37158 13.159 3.37158C11.634 3.37158 10.1714 3.97738 9.0931 5.05572C8.01477 6.13405 7.40897 7.59659 7.40897 9.12158C7.40897 13.4331 6.05676 14.8294 4.78505 16.1423Z" stroke="white" stroke-width="2" stroke-linecap="round" stroke-linejoin="round"/>
</g>
<defs>
<clipPath id="clip0_994_6301">
<rect width="23" height="23" fill="white" transform="translate(1.65991 1.45483)"/>
</clipPath>
</defs>
</svg>
